<svg width="30" height="30" viewBox="0 0 30 30" fill="none" xmlns="http://www.w3.org/2000/svg">
<path d="M15.0252 0C8.39622 0 3 5.39623 3 12.0252C3 12.7799 3.06918 13.5409 3.21384 14.283C3.22013 14.327 3.24528 14.4591 3.2956 14.6855C3.47799 15.4969 3.74843 16.2956 4.10063 17.0566C5.39623 20.1069 8.24528 24.7925 14.4969 29.8113C14.6541 29.9371 14.8428 30 15.0314 30C15.2201 30 15.4088 29.9371 15.566 29.8113C21.8113 24.7925 24.6667 20.1069 25.9623 17.0566C26.3145 16.2956 26.5849 15.5031 26.7673 14.6855C26.8176 14.4591 26.8428 14.327 26.8491 14.283C26.9874 13.5409 27.0629 12.7799 27.0629 12.0252C27.0503 5.39623 21.6541 0 15.0252 0ZM25.1635 13.9874C25.1635 14 25.1572 14.0126 25.1572 14.0252C25.1509 14.0566 25.1321 14.1509 25.1006 14.2956C25.1006 14.3019 25.1006 14.3019 25.1006 14.3082C24.9434 15.0126 24.7107 15.6981 24.4025 16.3585C24.3962 16.3648 24.3962 16.3774 24.3899 16.3836C23.2138 19.1698 20.6352 23.4214 15.0252 28.0566C9.41509 23.4214 6.83648 19.1698 5.66038 16.3836C5.65409 16.3774 5.65409 16.3648 5.6478 16.3585C5.34591 15.7044 5.11321 15.0126 4.94968 14.3082C4.94968 14.3019 4.94968 14.3019 4.94968 14.2956C4.91195 14.1509 4.89937 14.0566 4.89308 14.0252C4.89308 14.0126 4.88679 14 4.88679 13.9811C4.76101 13.3333 4.69811 12.6792 4.69811 12.0189C4.69811 6.32704 9.33333 1.69182 15.0252 1.69182C20.717 1.69182 25.3522 6.32704 25.3522 12.0189C25.3522 12.6855 25.2893 13.3459 25.1635 13.9874Z" fill="black"/>
<path d="M14.9941 4.52197C10.7866 4.52197 7.35889 7.94965 7.35889 12.1572C7.35889 16.3647 10.7866 19.7924 14.9941 19.7924C19.2016 19.7924 22.6293 16.3647 22.6293 12.1572C22.6293 7.94965 19.2016 4.52197 14.9941 4.52197ZM14.9941 18.0943C11.7174 18.0943 9.057 15.4276 9.057 12.1572C9.057 8.88675 11.7237 6.22009 14.9941 6.22009C18.2645 6.22009 20.9312 8.88675 20.9312 12.1572C20.9312 15.4276 18.2708 18.0943 14.9941 18.0943Z" fill="black"/>
</svg>
